<mxfile host="app.diagrams.net" modified="2024-04-18T05:03:39.208Z" agent="Mozilla/5.0 (Windows NT 10.0; Win64; x64) AppleWebKit/537.36 (KHTML, like Gecko) Chrome/123.0.0.0 Safari/537.36" version="24.2.3" etag="HiZosZrNPG8BLfq6v2g6" type="github">
  <diagram name="Page-1" id="XWE0hdwZ5kgrin6mad2_">
    <mxGraphModel>
      <root>
        <mxCell id="0" />
        <mxCell id="1" parent="0" />
      </root>
    </mxGraphModel>
  </diagram>
</mxfile>
